<?xml version="1.0" encoding="UTF-8"?>
<svg id="Layer_2" xmlns="http://www.w3.org/2000/svg" width="123.22" height="107.64" viewBox="0 0 123.22 107.64">
  <g id="Layer_1-2" data-name="Layer_1">
    <path d="M53.78,106.82c-1.92,0-3.24-.26-4.64-.54-.29-.06-.59-.12-.91-.18-1.93-.36-3.86-.8-5.74-1.31-3.82-1.03-7.54-2.38-11.07-4.01-2.93-1.35-5.76-2.91-8.41-4.64-.76-.49-1.5-1.01-2.25-1.52l-.35-.24c-.21-.15-.66-.46-.9-1.04-.25-.61-.12-1.17-.01-1.53.52-1.7,1.65-3.01,2.69-4.07.22-.22.49-.47.79-.73.33-.3,1-.89,1.33-1.34-1.01-.66-2.27-1-3.77-1-1.6,0-3.42.37-5.43,1.1-.45.16-.88.34-1.31.54l-5.58,2.52,3.79-4.82c.22-.28.44-.55.66-.82,2.29-2.75,4.86-5.28,7.63-7.52,1.4-1.13,2.9-2.1,4.34-3.03,1.45-.94,2.83-1.83,4.1-2.86-1.11-.75-2.85-.93-4.26-.93-2.25,0-4.65.47-6.15.9-4.31,1.25-7.77,3.95-11.44,6.8l-4.45,3.46,1.98-5.07c.79-2.03,2.47-3.71,3.95-5.2.24-.24.48-.48.7-.71,2.55-2.62,5.02-4.84,7.55-6.78,5.4-4.14,12.01-7.17,19.25-8.81-2.58-2.2-7.01-2.71-9.73-2.8-.28,0-.57-.01-.85-.01-5.53,0-10.65,1.86-14.49,3.47l-4.31,1.82,2.46-3.98c2.22-3.61,7.9-5.95,11.66-7.5l.59-.24c5.28-2.19,10.65-3.55,16.01-4.06-4.93-7.02-8.43-12.86-11.22-18.71l-2.43-5.09,4.64,3.22c9.36,6.49,18.92,12.25,27.57,17.22-5.41-8.21-9.2-16.73-11.07-24.94l-1.11-4.88,3.61,3.46c8.32,7.98,17.46,15.89,27.83,24.08-2.96-7.16-5.75-15.76-6.3-24.9l-.27-4.5,2.91,3.44c4.5,5.32,9.22,11.22,14.44,18.05,2.46,3.21,4.62,6.23,6.62,9.21,1.11,1.66,2.12,3.23,3.07,4.78.26.42.5.91.75,1.43.17.36.39.8.62,1.2,1.98-3.13,2.1-7.38.37-12.65l2.85-.94c-.02-.07-.05-.11-.05-.11.06.09.28.32.42.46.22.23.42.44.56.63.4.54.79,1.12,1.15,1.71.69,1.14,1.32,2.39,1.86,3.72,1.07,2.62,1.75,5.24,2.12,8.26.9,7.22.71,14.31-.57,21.1,1.17.17,2.4.3,3.59.3,1.45,0,2.59-.2,3.49-.61,1.82-.83,2.67-2.75,3.58-4.79.17-.38.34-.75.51-1.12l1.37-2.93,1.35,2.94c3.1,6.76.32,15.58-3.57,20.9-3.78,5.17-9.8,8.75-17.39,10.34-3.46.73-7.1,1.09-10.82,1.09h0c-12.01,0-23.84-3.81-34.07-7.48-.62,1.08-1.57,3.38-1.74,3.97-.47,1.65-.62,3.48-.46,5.43.15,1.77,1.48,4.45,2.55,6.61,1.48,2.97,2.29,4.6,1.51,5.88-.35.57-.97.9-1.69.9ZM70.43,59.81c-.74,2.76-.35,5.36,1.17,7.6,2.12,3.13,6.35,5.24,10.53,5.24.05,0,.1,0,.15,0,0,0-.02-.01-.03-.02-2.89-1.85-2.09-6.07-1.3-8.85l-10.53-3.97ZM88.92,66.37c-.39,1.68-.99,3.8-2.05,5.23,1.63-.79,3.24-2.17,4.27-4.55l-2.23-.69Z"/>
    <path d="M85.03,71.02c-.32,0-.66-.1-1.02-.34-2.45-1.57-.91-6.42-.27-8.5-4.45-1.68-8.82-3.33-13.29-5.01-3.81,9.53,4.67,16.29,12.63,16.29,4.74,0,9.3-2.41,10.96-8.06-1.79-.55-3.48-1.07-5.29-1.63-.31,1.43-1.35,7.25-3.71,7.25Z" style="fill: #dcdcdc;"/>
    <path d="M121.77,57.88l-2.69-5.88-2.75,5.85c-.18.38-.35.76-.52,1.15-.95,2.14-1.62,3.48-2.83,4.03-.69.32-1.66.48-2.87.48-.6,0-1.22-.04-1.84-.1,1.05-6.46,1.15-13.17.31-19.99-.39-3.15-1.1-5.9-2.22-8.64-.57-1.4-1.24-2.72-1.97-3.93-.39-.64-.8-1.25-1.23-1.83-.22-.3-.47-.55-.69-.78-.09-.1-6.65-5.52-6.65-5.52l.93,7.63c1.11,3.38,1.41,6.26.89,8.63-.94-1.53-1.93-3.07-3.02-4.7-2.01-3.01-4.2-6.05-6.67-9.29-5.23-6.84-9.97-12.77-14.48-18.11l-5.82-6.89.54,9c.43,7.22,2.22,14.08,4.4,20.18-8.57-6.94-16.28-13.71-23.39-20.53l-7.22-6.92,2.22,9.76c1.52,6.69,4.29,13.57,8.14,20.32-7.19-4.23-14.82-8.96-22.32-14.16l-9.28-6.43,4.86,10.19c2.55,5.34,5.68,10.68,9.92,16.87-4.67.67-9.34,1.96-13.93,3.87l-.59.24c-3.94,1.62-9.89,4.08-12.37,8.1l-4.91,7.97,8.63-3.63c5.59-2.35,9.75-3.36,13.91-3.36.26,0,.53,0,.8.01,1.55.05,3.72.24,5.67.83-5.97,1.8-11.44,4.54-16.05,8.08-2.59,1.98-5.11,4.25-7.71,6.92-.22.23-.45.46-.69.69-1.51,1.51-3.38,3.39-4.29,5.71l-3.96,10.14,8.6-6.68.16-.12c3.55-2.76,6.9-5.37,10.94-6.54,1.4-.41,3.64-.84,5.73-.84.31,0,.61,0,.88.03-.5.33-1.01.66-1.53,1-1.48.96-3.01,1.95-4.47,3.13-2.85,2.3-5.49,4.9-7.85,7.72-.24.28-.46.57-.69.86l-7.57,9.63,11.17-5.04c.43-.19.82-.35,1.21-.49,1.81-.66,3.51-1.01,4.92-1.01.37,0,.72.02,1.04.07-.16.15-.32.29-.46.44-1.1,1.12-2.44,2.66-3.05,4.69-.27.9-.25,1.75.06,2.53.4,1,1.15,1.52,1.44,1.72l.35.24c.74.51,1.5,1.04,2.29,1.55,2.71,1.77,5.61,3.36,8.6,4.74,3.6,1.66,7.41,3.04,11.3,4.1,1.92.52,3.89.97,5.86,1.33.31.06.6.11.89.17,1.41.28,2.86.57,4.93.57,1.23,0,2.34-.6,2.97-1.61,1.23-1.98.17-4.11-1.44-7.34-.96-1.93-2.28-4.58-2.4-6.06-.15-1.78-.01-3.43.41-4.9.14-.43.6-1.57,1.04-2.52,10.06,3.58,21.57,7.12,33.33,7.12,3.82,0,7.57-.38,11.13-1.13,7.96-1.67,14.28-5.44,18.29-10.92,4.15-5.67,7.08-15.1,3.73-22.41ZM115.62,78.52c-3.95,5.39-10.06,8.41-16.48,9.76-3.52.74-7.03,1.06-10.52,1.06-11.79,0-23.36-3.71-34.41-7.7-.02,0-.04-.01-.06-.01-.78,0-2.61,4.71-2.78,5.29-.55,1.94-.68,3.97-.51,5.97.36,4.32,6.03,11.76,3.86,11.76s-3.53-.36-5.27-.69c-1.89-.35-3.76-.78-5.62-1.28-3.71-1-7.34-2.31-10.83-3.93-2.84-1.31-5.6-2.83-8.22-4.53-.87-.56-1.71-1.16-2.56-1.74-.14-.1-.29-.21-.36-.37-.07-.17-.03-.36.03-.54.41-1.34,1.34-2.46,2.32-3.46.92-.94,2.93-2.28,2.71-3.71,0,0,0-.01-.01-.02-.04-.06-.11-.12-.2-.17-1.5-1.27-3.35-1.72-5.23-1.72-2.1,0-4.23.57-5.94,1.19-.48.18-.96.37-1.42.58.21-.26.42-.53.64-.79,2.22-2.67,4.72-5.13,7.42-7.31,3.1-2.5,6.74-4.21,9.64-6.93-1.11-1.95-3.71-2.55-6.4-2.55-2.47,0-5.01.51-6.57.96-4.65,1.35-8.34,4.25-12.1,7.17.8-2.05,2.83-3.87,4.33-5.41,2.3-2.37,4.76-4.62,7.38-6.64,6.07-4.66,13.54-7.66,21.05-9.02-2.24-4.17-8.16-5.14-12.39-5.27-.3,0-.6-.01-.9-.01-5.3,0-10.21,1.54-15.08,3.59,2.08-3.38,8.08-5.71,11.55-7.15,5.78-2.4,11.95-3.87,18.21-4.13-4.78-6.65-9.16-13.37-12.64-20.67,10.83,7.51,22.12,14.18,33.57,20.65-6.68-8.75-12.29-19.11-14.75-29.93,10.44,10.01,21.33,19.13,32.61,27.83-4.32-9.43-7.93-19.37-8.55-29.82,4.95,5.85,9.74,11.9,14.39,17.99,2.28,2.98,4.48,6.02,6.56,9.14,1.04,1.56,2.06,3.13,3.04,4.73.75,1.22,1.5,3.5,2.71,4.22,3.97-4.35,3.44-10.3,1.73-15.5.15.45.86,1.01,1.15,1.4.38.52.74,1.05,1.08,1.6.68,1.12,1.26,2.29,1.76,3.51,1.05,2.57,1.68,5.12,2.02,7.88.91,7.36.69,14.92-.86,22.17,1.62.25,3.52.55,5.37.55,1.46,0,2.89-.19,4.11-.75,2.72-1.24,3.64-4.11,4.83-6.64,2.79,6.09.31,14.29-3.42,19.39Z" style="fill: #dcdcdc;"/>
  </g>
</svg>