<?xml version="1.0" encoding="UTF-8"?>
<svg id="Layer_2" xmlns="http://www.w3.org/2000/svg" width="103.15" height="99.43" viewBox="0 0 103.15 99.43">
  <g id="Layer_1-2" data-name="Layer_1">
    <path d="M51.14,99.43c-4.8,0-9.15-1.21-12.92-3.58-3-1.89-5.08-4.71-6.37-8.61-.82-2.47-1.97-5.67-3.63-8.4-2.73-4.49-6.57-6.76-11.41-6.76-1.22,0-2.52.15-3.86.43l-2.15.45c-.21.04-.41.06-.62.06-.85,0-1.68-.36-2.25-1.02-.71-.81-.94-1.95-.58-2.97,2.87-8.2-.54-14.12-6.53-20.49-.92-.98-1.08-2.45-.39-3.6.55-.92,1.54-1.46,2.57-1.46.26,0,.52.03.78.1l8.25,2.22c-.22-4.25-1.58-8.36-3-12.65-.34-1.02-.67-2.04-1-3.06-.42-1.34.14-2.8,1.36-3.5.47-.27.98-.4,1.5-.4.82,0,1.63.34,2.22.98,0,0,5.25,5.76,6.25,6.86-2.47-7.41-3.31-16.48-1.53-27.31.23-1.38,1.38-2.42,2.77-2.51.06,0,.13,0,.19,0,1.32,0,2.49.87,2.87,2.14,1.93,6.49,6,11.64,12.71,16l.17-.51c.34-1.05,1.23-1.82,2.32-2.02.18-.03.36-.05.54-.05.9,0,1.77.41,2.34,1.12l1.12,1.4,5.59-20.1C48.8.92,49.97.02,51.3,0c0,0,.57,0,.58,0,1.35,0,2.53.9,2.89,2.2l5.59,20.09,1.1-1.37c.58-.72,1.44-1.12,2.34-1.12.18,0,.35.02.53.05,1.08.19,1.97.96,2.32,2.01l.17.53c6.87-4.53,10.8-9.65,12.59-16.28.35-1.31,1.54-2.22,2.9-2.22.03,0,.06,0,.1,0,1.39.04,2.57,1.04,2.85,2.4,1.95,9.6,1.41,19.42-1.51,27.97,2.2-2.39,4.36-4.71,6.48-6.97.58-.62,1.38-.95,2.19-.95.52,0,1.05.14,1.53.42,1.21.72,1.76,2.17,1.32,3.51-.33,1-.67,2-1.01,3-1.45,4.24-2.83,8.29-3.06,12.55l8.18-2.2c.26-.07.52-.1.78-.1,1.03,0,2.01.53,2.57,1.45.69,1.14.54,2.61-.37,3.59-7.07,7.64-9.02,13.35-6.74,19.7.33.92.19,1.94-.37,2.74-.56.8-1.48,1.28-2.45,1.28s-1.94-.03-2.92-.07c-.9-.03-1.8-.07-2.7-.07-1.16,0-2.1.06-2.95.18-4.27.61-7.57,3.18-10.08,7.85-.81,1.51-1.83,3.4-2.2,5.11-1.69,7.81-6.98,12.44-15.7,13.76-1.77.27-3.49.41-5.11.41ZM66.56,55.64c.02.09.04.17.06.26.35-.17.72-.32,1.13-.45.66-.21,1.3-.56,1.64-1.58-.91.63-1.85,1.22-2.83,1.77ZM33.9,54.26c-.02.41.65.95,1.47,1.18.44.13.85.28,1.22.45.02-.1.04-.19.06-.29-.92-.53-1.84-1.1-2.74-1.73,0,.12,0,.25-.01.38Z"/>
    <path d="M100.15,46.51c-3.92,1.05-7.83,2.11-11.85,3.19-.81-7.37,1.96-13.79,4.1-20.36-6.54,6.96-12.92,13.97-19.23,21.05-.46.51-.51,1.48-.55,2.25-.16,2.74-1.32,4.84-3.98,5.67-1.93.61-2.67,1.87-3.02,3.66,5.49-.23,9.81-3.16,10.68-7.94.96-5.23,5.43-7.45,8.27-11.1-.06,1.76-.46,3.35-.71,4.96-1.3,8.46-6.4,13.69-14.39,15.82-3.96,1.06-6.92,2.52-7.99,6.67-.01.05-.23.05-.49.1.87-4.58,1.72-9.11,2.66-14.1-2.22,1.11-3.88,1.94-5.86,2.93.32-2.96.59-5.54.87-8.13.11-.01.21-.03.32-.04.39,1.32.78,2.64,1.23,4.13,19.26-7.11,26.07-28.84,22.1-48.4-2.59,9.6-9.01,15.42-17.15,20.02-.5-1.49-.87-2.63-1.36-4.11-1.64,2.05-3.05,3.81-4.76,5.93-2.47-8.88-4.81-17.3-7.16-25.72-.18,0-.37,0-.55,0-2.34,8.43-4.69,16.86-7.16,25.75-1.72-2.15-3.15-3.93-4.78-5.97-.53,1.62-.91,2.78-1.33,4.07-8.2-4.53-14.54-10.46-17.27-19.64-4.17,25.44,6.94,42.54,22.18,48.02.43-1.43.87-2.86,1.3-4.28.11.02.21.05.32.07.26,2.65.51,5.3.81,8.33-2.07-1.06-3.72-1.9-5.85-2.99.94,5.03,1.8,9.57,2.65,14.11-.64-.34-.92-.76-1.06-1.22-.85-2.94-2.76-4.2-5.78-5.05-12.5-3.49-15.27-9.22-16.89-21.77,2.03,2.22,3.68,4.12,5.44,5.92,1.52,1.56,2.5,3.25,2.95,5.48.98,4.91,5.26,7.99,10.73,8.13-.37-1.78-1.08-3.08-3.05-3.64-2.03-.58-3.75-2.14-3.65-4.22.15-3.02-1.65-4.65-3.34-6.52-1.94-2.14-3.85-4.31-5.79-6.45-3.62-3.99-7.25-7.97-10.88-11.95,2.12,6.71,4.84,13.18,4.02,20.5-4.08-1.1-7.99-2.15-11.91-3.2,6.37,6.77,10.56,13.84,7.17,23.53.9-.19,1.52-.32,2.14-.45,7.82-1.68,14.3.87,18.46,7.7,1.69,2.78,2.89,5.91,3.92,9.02.98,2.97,2.5,5.36,5.13,7.02,4.94,3.11,10.38,3.6,15.98,2.75,6.74-1.03,11.66-4.23,13.22-11.43.45-2.05,1.48-4.02,2.49-5.9,2.67-4.96,6.56-8.57,12.29-9.4,2.94-.42,5.99-.07,8.99-.07-3.21-8.92,1.11-16,7.36-22.75ZM43.18,85.86c-.31.64-.62,1.26-1.02,2.08-.32-.27-.58-.42-.75-.64-1.95-2.53-2.08-4.22-.54-6.73,3.44.86,4.24,3.54,4.53,7.12-.88-.72-1.48-1.22-2.22-1.83ZM61.04,88.01c-.36-.84-.62-1.41-.93-2.13-.73.56-1.39,1.05-2.18,1.66.11-3.21.79-5.84,4.11-6.89,2.12,1.69,1.9,4.19-1,7.37Z" style="fill: #dcdcdc;"/>
  </g>
</svg>