<?xml version="1.0" encoding="UTF-8"?>
<svg id="Layer_2" xmlns="http://www.w3.org/2000/svg" width="68" height="72.18" viewBox="0 0 68 72.18">
  <g id="Layer_1-2" data-name="Layer_1">
    <g>
      <path d="M16.22,71.18c-.89,0-1.73-.37-2.44-1.08l-4.08-4.08c-.45.26-.92.52-1.45.7-.57.19-1.15.29-1.75.29-1.93,0-3.69-1-4.72-2.68-1.3-2.13-.97-4.97.79-6.75,1.63-1.65,3.27-3.28,4.91-4.92l21.17-21.17c2.07-2.07,4.13-4.13,6.2-6.2-3.14-6.4-1.93-14.05,3.04-19.14,2.94-3.01,6.55-4.71,10.75-5.07l.27-.07h2.3l.69.1c.48.06.96.13,1.43.23,4.77.99,8.5,3.57,11.09,7.66,1.84,2.91,2.7,6.11,2.55,9.51-.25,5.71-2.68,10.18-7.2,13.29-2.99,2.06-6.18,3.1-9.46,3.1-2.47,0-5.03-.59-7.6-1.76-3.15,3.16-6.29,6.3-9.43,9.44l-6,6c.46.45.93.9,1.38,1.35.91.9,1.82,1.8,2.71,2.72,1.35,1.38,1.34,3.38-.02,4.75l-.72.72c-.76.76-1.52,1.52-2.28,2.28-.75.74-1.6,1.13-2.48,1.13s-1.72-.39-2.46-1.12c-1.31-1.3-2.62-2.62-3.92-3.93l-1.84,1.82c.56.54,1.12,1.09,1.67,1.64.77.76,1.53,1.51,2.29,2.28,1.49,1.5,1.48,3.45-.02,4.95l-2.95,2.95c-.71.7-1.55,1.07-2.43,1.07Z" style="fill: #e6e7e8;"/>
      <path d="M51.15,2c.66.1,1.33.16,1.98.3,4.49.94,7.99,3.33,10.45,7.21,1.73,2.72,2.54,5.73,2.4,8.94-.23,5.25-2.43,9.53-6.77,12.51-2.87,1.97-5.85,2.93-8.89,2.93-2.43,0-4.91-.61-7.42-1.78-.12-.06-.22-.09-.31-.09-.14,0-.25.07-.4.21-3.98,4-7.98,7.99-11.97,11.98-1.39,1.39-2.79,2.79-4.18,4.18-.04.04-.08.09-.17.2.7.68,1.4,1.36,2.09,2.04.91.9,1.81,1.8,2.7,2.71.98,1,.96,2.36-.02,3.35-1,1-1.99,2.01-3,3-.57.56-1.17.84-1.77.84s-1.2-.28-1.76-.83c-1.43-1.42-2.86-2.86-4.28-4.29-.12-.12-.21-.29-.28-.4-1.15,1.14-2.21,2.19-3.32,3.29.79.78,1.6,1.56,2.39,2.35.76.75,1.53,1.51,2.28,2.27,1.1,1.11,1.09,2.43-.02,3.54-.98.98-1.96,1.97-2.95,2.95-.52.52-1.12.78-1.72.78s-1.21-.26-1.73-.79c-1.48-1.48-2.97-2.96-4.45-4.45-.08-.08-.16-.15-.18-.16-.67.35-1.27.77-1.93.99-.47.16-.95.24-1.43.24-1.55,0-3.01-.82-3.86-2.21-1.06-1.73-.8-4.06.65-5.53,2.34-2.36,4.69-4.7,7.04-7.05,5.55-5.55,11.11-11.11,16.66-16.66,2.92-2.92,5.83-5.84,8.76-8.76.24-.24.29-.41.12-.73-3.09-6.02-1.99-13.39,2.74-18.24,2.78-2.84,6.15-4.44,10.12-4.77.1,0,.19-.04.29-.06h2.12M51.3,0h-2.49l-.21.05s-.09.02-.13.03c-4.4.4-8.19,2.2-11.28,5.36-5.11,5.23-6.47,13-3.53,19.63-1.93,1.92-3.85,3.85-5.78,5.78l-2.3,2.3-13.1,13.1-3.56,3.56-2.15,2.14c-1.64,1.63-3.28,3.27-4.9,4.91-2.08,2.1-2.47,5.46-.93,7.98,1.21,1.98,3.29,3.16,5.57,3.16.7,0,1.4-.12,2.07-.34.34-.12.66-.26.95-.41l3.55,3.55c.89.89,2,1.38,3.15,1.38s2.25-.48,3.13-1.36c.79-.79,1.58-1.58,2.37-2.36l.58-.59c1.87-1.87,1.88-4.49.02-6.36-.76-.77-1.53-1.53-2.29-2.29-.32-.31-.63-.62-.95-.93l.4-.4c1.07,1.08,2.14,2.16,3.22,3.23,1.18,1.17,2.37,1.42,3.17,1.42s1.99-.25,3.18-1.42c.76-.75,1.51-1.51,2.26-2.26l.75-.75c1.74-1.75,1.76-4.4.03-6.16-.9-.92-1.81-1.82-2.72-2.73-.22-.22-.44-.44-.66-.65l2.93-2.93,2.16-2.16c3.05-3.05,6.1-6.1,9.14-9.15,2.49,1.05,4.97,1.57,7.37,1.57,3.49,0,6.86-1.1,10.03-3.28,4.73-3.25,7.37-8.12,7.64-14.07.16-3.61-.75-7.01-2.71-10.09-2.74-4.32-6.69-7.05-11.73-8.1-.52-.11-1.02-.17-1.5-.24-.2-.03-.4-.05-.6-.08l-.15-.02h0Z" style="fill: #414141;"/>
    </g>
    <g>
      <path d="M50.08,25.78c-2.12,0-4.11-.82-5.6-2.31-1.47-1.47-2.27-3.42-2.26-5.5.02-4.26,3.34-7.71,7.57-7.84h.26c2.1,0,4.07.81,5.54,2.28,1.46,1.46,2.29,3.48,2.28,5.52,0,2.09-.81,4.06-2.29,5.55-1.47,1.48-3.43,2.29-5.5,2.3h0Z" style="fill: #414141;"/>
      <path d="M50.05,11.12c3.92,0,6.84,3.18,6.83,6.81.01,3.77-3.04,6.84-6.79,6.85h0c-3.8,0-6.87-3.03-6.86-6.81.01-3.87,3.03-6.73,6.6-6.84.08,0,.15,0,.23,0M50.05,9.12c-.1,0-.19,0-.29,0-4.77.15-8.52,4.03-8.54,8.84,0,2.34.9,4.55,2.55,6.21,1.68,1.68,3.92,2.61,6.31,2.61,2.36,0,4.56-.92,6.22-2.59,1.67-1.68,2.58-3.9,2.58-6.27,0-2.3-.93-4.57-2.58-6.22-1.66-1.67-3.88-2.58-6.25-2.58h0Z" style="fill: #e6e7e8;"/>
    </g>
  </g>
</svg>