<?xml version="1.0" encoding="UTF-8"?>
<svg id="Layer_2" xmlns="http://www.w3.org/2000/svg" width="297.3" height="284.54" viewBox="0 0 297.3 284.54">
  <g id="Layer_1-2" data-name="Layer_1">
    <path d="M297.26,79.12c-.27-4.31-.72-8.64-1.51-12.89C288.3,26.3,252.02-1.96,210.97.11c-40,2.01-73.74,34.31-76.33,74.44-1.31,20.21-.45,26.84-.79,46.85H29.58c-6.94.04-12.81,1.58-17.45,4.47C4.68,130.5.42,138.61.04,149.51c-.03.6-.04,1.2-.04,1.82,0,.61,0,1.22,0,1.82,0,33.99-.02,67.97,0,101.96.01,15.23,7.45,25.31,20.45,28.41,2.74.67,5.71,1.02,8.9,1.02,21.95,0,43.89,0,65.84,0,21.95,0,43.89,0,65.84,0,3.19,0,6.17-.35,8.9-1.02,13-3.1,20.44-13.18,20.45-28.41.02-33.99.01-67.97,0-101.96,0-.61,0-1.22,0-1.82,0-.62,0-1.22-.04-1.82-.39-10.9-4.65-19.01-12.1-23.65-4.43-2.76-10-4.28-16.55-4.44-.02-20.35-1.1-26.64.27-46.49,1.97-28.46,30.31-50.65,58.45-47.41,28.53,3.28,48.15,24.27,49.49,52.97.44,9.35,6.23,15.15,14.66,14.68,7.97-.44,13.24-6.98,12.67-16.05ZM110.76,205.08c-.24.29-.49.57-.73.86-.03.98,5.09,44.3,5.65,48.8h-40.97c.56-4.5,5.68-47.82,5.65-48.8-.23-.28-.48-.57-.73-.86-8.19-5.17-13.63-14.29-13.63-24.69,0-.34.01-.68.03-1.02.54-15.65,13.39-28.17,29.17-28.17s28.62,12.52,29.17,28.17c.01.34.03.68.03,1.02,0,10.4-5.44,19.52-13.63,24.69Z" style="fill: #414141;"/>
  </g>
</svg>