<?xml version="1.0" encoding="UTF-8"?>
<svg id="Layer_2" xmlns="http://www.w3.org/2000/svg" width="469.76" height="95.35" viewBox="0 0 469.76 95.35">
  <g id="Layer_1-2" data-name="Layer_1">
    <g>
      <path d="M.49,40.96c0-3.2,1.33-6.01,3.98-8.45,2.65-2.43,6.14-3.65,10.46-3.65.92,0,1.75.05,2.5.15.75.1,1.34.18,1.77.25.43.07.67.1.74.1.26,0,.65-.16,1.18-.49.52-.33.98-.49,1.37-.49.79,0,1.32.63,1.59,1.9.2,1,.46,2.4.79,4.19.33,1.8.61,3.31.84,4.54.23,1.23.35,1.91.35,2.05,0,.91-.8,1.36-2.39,1.36-.66,0-1.13-.24-1.42-.71-.29-.47-.57-1.15-.83-2.04-.26-.89-.56-1.55-.88-1.99-.72-.95-1.88-1.82-3.49-2.61-1.6-.79-3.19-1.19-4.76-1.19-1.77,0-3.27.48-4.52,1.44-1.24.96-1.87,2.21-1.87,3.74,0,3.26,2.65,5.63,7.95,7.1.69.21,1.7.46,3.01.75,1.31.3,2.32.54,3.02.73.7.19,1.56.48,2.58.88,1.02.39,1.93.88,2.73,1.47.79.59,1.55,1.31,2.28,2.16,2.05,2.36,3.07,5,3.07,7.95,0,3.54-1.4,6.68-4.2,9.43-2.8,2.75-6.54,4.13-11.22,4.13-2.55,0-5.16-.43-7.81-1.28-2.65-.85-4.66-2.09-6.04-3.73-.79-.85-1.18-2-1.18-3.44,0-1.05-.02-2.22-.05-3.54-.03-1.31-.05-2.13-.05-2.45,0-1.31.11-2.16.34-2.55.23-.39.7-.59,1.42-.59s1.18.29,1.37.88c.2.58.33,1.45.39,2.58.06,1.14.26,2.06.59,2.78.59,1.3,1.98,2.6,4.17,3.9,2.19,1.3,4.6,1.95,7.22,1.95,2.29,0,4.22-.62,5.79-1.85,1.57-1.24,2.36-2.83,2.36-4.78,0-1.24-.28-2.32-.83-3.27-.56-.94-1.42-1.72-2.6-2.34-1.18-.62-2.13-1.07-2.85-1.37-.72-.29-1.87-.63-3.44-1.02l-2.31-.48C4.2,50.91.49,46.89.49,40.96Z" style="fill: #dcdcdc;"/>
      <path d="M67.46,68.44c-.07,0-.34.18-.83.54-.49.36-1.14.79-1.96,1.28-.81.49-1.74.98-2.79,1.47s-2.31.92-3.81,1.28c-1.5.36-3.03.54-4.6.54-4.14,0-7.59-1.28-10.35-3.83-2.76-2.55-4.44-6.12-5.03-10.7-.2-1.96-.3-4.03-.3-6.19,0-1.24.02-4.14.05-8.69.03-4.55.05-7.02.05-7.41,0-1.24-.9-2.19-2.71-2.85-.32-.13-.82-.29-1.5-.49-.68-.2-1.11-.39-1.3-.59-.19-.2-.29-.55-.29-1.08v-.29c0-.85.36-1.31,1.08-1.38,6.67-.39,10.17-.59,10.49-.59.66,0,1,.39,1,1.18v20.62c0,4.39.62,7.86,1.86,10.41.91,1.77,2.3,3.32,4.15,4.67,1.86,1.34,3.99,2.01,6.4,2.01,3.26,0,6.09-1.21,8.51-3.63.13-.2.31-.41.54-.64.23-.23.37-.39.44-.49.06-.1.16-.21.29-.34.13-.13.21-.25.25-.34.03-.1.08-.21.15-.34.06-.13.1-.25.1-.34v-25.19c0-1.44-.67-2.36-2.01-2.75-.34-.13-1.95-.43-4.83-.88-1.01-.2-1.51-.75-1.51-1.67,0-.98.46-1.54,1.37-1.67,2.16-.06,4.11-.13,5.84-.2,1.73-.06,2.95-.11,3.63-.15.69-.03,1.28-.05,1.77-.05h1.13c.98,0,1.47.66,1.47,1.96v31.52c0,.2.02.34.05.44.03.1.1.2.2.29.1.1.22.18.36.25.14.07.34.16.61.29.27.13.58.26.91.39.34.13.78.33,1.32.59.54.26,1.12.53,1.73.79.61.26.91.66.91,1.18,0,.72-.15,1.21-.45,1.47-.3.26-.74.44-1.34.54-.59.1-1.68.43-3.27.98-1.58.56-3.3,1.36-5.15,2.41-.38.26-.73.39-1.05.39-.89,0-1.34-.66-1.34-1.96v-2.36c0-.26-.1-.39-.29-.39Z" style="fill: #dcdcdc;"/>
      <path d="M106.25,29.26c1.96,0,3.8.11,5.5.34,1.7.22,3.01.46,3.93.72l1.38.38c.52,0,.78-.29.78-.88V12.96c0-.2-.02-.38-.05-.54-.03-.16-.06-.31-.1-.44-.03-.13-.1-.26-.19-.39-.1-.13-.18-.23-.24-.29-.06-.06-.21-.16-.44-.29-.23-.13-.42-.24-.58-.34-.16-.1-.42-.21-.78-.34-.36-.13-.68-.26-.97-.39-.29-.13-.69-.29-1.21-.49-.52-.2-1-.39-1.45-.59-1.23-.33-1.84-.85-1.84-1.57,0-.39.29-.79.88-1.18,8.37-4.06,12.69-6.09,12.95-6.09.79,0,1.19.46,1.19,1.38,0,.66-.03,2.37-.1,5.16-.07,2.78-.12,6.6-.15,11.46-.03,4.86-.05,10.15-.05,15.89,0,17.88.1,27.7.29,29.46,0,.2.02.34.05.44.03.1.08.2.15.29.06.1.15.18.25.24.1.07.23.12.39.15.16.03.31.06.44.1.13.03.34.05.64.05h.79c.23,0,.54.02.93.05.39.03.75.05,1.08.05,1.31,0,1.96.49,1.96,1.47,0,.46-.18.83-.54,1.09-.36.26-1.11.64-2.26,1.14-1.15.5-2.21,1.04-3.19,1.62-1.32.72-2.51,1.45-3.57,2.2-1.06.75-1.83,1.3-2.29,1.66-.46.36-.83.54-1.1.54-.53,0-.8-.29-.8-.88v-3.37c0-.2-.1-.31-.29-.31l-.59.41c-.33.27-.81.61-1.47,1.02-.65.41-1.42.81-2.3,1.22-.88.41-1.99.75-3.33,1.02-1.34.27-2.72.41-4.16.41-6.49,0-11.79-2.22-15.89-6.67-4.1-4.45-6.15-9.93-6.15-16.46,0-5.78,1.88-10.82,5.65-15.11s9.35-6.44,16.74-6.44h.1ZM106.09,33.19c-4.96,0-8.77,1.5-11.45,4.5-2.67,3-4.01,7.08-4.01,12.24,0,5.68,1.89,10.19,5.67,13.52,3.78,3.33,7.7,5,11.74,5,2.02,0,4-.41,5.92-1.22s3.08-1.84,3.47-3.08c.26-1.04.39-1.79.39-2.25v-22.52c0-.85-.36-1.63-1.08-2.35-2.74-2.54-6.3-3.82-10.67-3.82Z" style="fill: #dcdcdc;"/>
      <path d="M133.84,51.35c0-6.77,2.1-12.29,6.3-16.56,4.2-4.27,9.19-6.41,14.96-6.41s11.06,2.15,15.06,6.46c4,4.3,6,9.81,6,16.51s-2.08,12.27-6.25,16.28c-4.17,4.01-9.23,6.01-15.21,6.01s-11.17-2.15-15.05-6.45c-3.88-4.3-5.82-9.58-5.82-15.84ZM144.95,63.64c2.56,3.33,5.91,5,10.05,5s7.55-1.67,10.25-5c2.69-3.33,4.04-7.3,4.04-11.9,0-5.18-1.49-9.53-4.48-13.06s-6.46-5.29-10.4-5.29c-3.29,0-6.32,1.42-9.12,4.27-2.79,2.85-4.19,7.25-4.19,13.21,0,5.18,1.28,9.44,3.84,12.77Z" style="fill: #dcdcdc;"/>
      <path d="M198.65,38.1c1.05,0,1.57,1.31,1.57,3.93,0,.98-.59,1.93-1.77,2.85-1.51,1.05-2.96,2.06-4.37,3.04-1.41.98-2.59,1.82-3.54,2.5-.95.69-1.85,1.34-2.7,1.96-.85.62-1.54,1.11-2.06,1.47-.52.36-1.02.7-1.47,1.03-.46.33-.8.57-1.03.74-.23.16-.46.29-.69.39-.23.1-.41.16-.54.2-.13.03-.26.05-.39.05-1.24,0-1.87-.85-1.87-2.55v-1.47c0-.65.11-1.13.34-1.42.23-.29.77-.74,1.62-1.33,2.88-2.03,6.15-4.32,9.82-6.87,4.25-3.01,6.61-4.52,7.07-4.52Z" style="fill: #dcdcdc;"/>
      <path d="M225.55,29.26c1.96,0,3.8.11,5.5.34,1.7.22,3.01.46,3.93.72l1.38.38c.52,0,.78-.29.78-.88V12.96c0-.2-.02-.38-.05-.54-.03-.16-.06-.31-.1-.44-.03-.13-.1-.26-.19-.39-.1-.13-.18-.23-.24-.29-.06-.06-.21-.16-.44-.29-.23-.13-.42-.24-.58-.34-.16-.1-.42-.21-.78-.34-.36-.13-.68-.26-.97-.39-.29-.13-.69-.29-1.21-.49-.52-.2-1-.39-1.45-.59-1.23-.33-1.84-.85-1.84-1.57,0-.39.29-.79.88-1.18,8.37-4.06,12.69-6.09,12.95-6.09.79,0,1.19.46,1.19,1.38,0,.66-.03,2.37-.1,5.16-.07,2.78-.12,6.6-.15,11.46-.03,4.86-.05,10.15-.05,15.89,0,17.88.1,27.7.29,29.46,0,.2.02.34.05.44.03.1.08.2.15.29.06.1.15.18.25.24.1.07.23.12.39.15.16.03.31.06.44.1.13.03.34.05.64.05h.79c.23,0,.54.02.93.05.39.03.75.05,1.08.05,1.31,0,1.96.49,1.96,1.47,0,.46-.18.83-.54,1.09-.36.26-1.11.64-2.26,1.14-1.15.5-2.21,1.04-3.19,1.62-1.32.72-2.51,1.45-3.57,2.2-1.06.75-1.83,1.3-2.29,1.66-.46.36-.83.54-1.1.54-.53,0-.8-.29-.8-.88v-3.37c0-.2-.1-.31-.29-.31l-.59.41c-.33.27-.81.61-1.47,1.02-.65.41-1.42.81-2.3,1.22-.88.41-1.99.75-3.33,1.02-1.34.27-2.72.41-4.16.41-6.49,0-11.79-2.22-15.89-6.67-4.1-4.45-6.15-9.93-6.15-16.46,0-5.78,1.88-10.82,5.65-15.11s9.35-6.44,16.74-6.44h.1ZM225.4,33.19c-4.96,0-8.77,1.5-11.45,4.5-2.67,3-4.01,7.08-4.01,12.24,0,5.68,1.89,10.19,5.67,13.52,3.78,3.33,7.7,5,11.74,5,2.02,0,4-.41,5.92-1.22s3.08-1.84,3.47-3.08c.26-1.04.39-1.79.39-2.25v-22.52c0-.85-.36-1.63-1.08-2.35-2.74-2.54-6.3-3.82-10.67-3.82Z" style="fill: #dcdcdc;"/>
      <path d="M265.52,33.88c.06,0,.79-.47,2.16-1.42,1.38-.95,2.91-1.98,4.62-3.09,1.7-1.11,2.95-1.8,3.73-2.06.79-.26,1.77-.39,2.95-.39,1.83,0,3.6.41,5.3,1.23,1.7.82,2.55,1.88,2.55,3.19v.1c0,.39-.13.79-.39,1.18-.26.39-.49.69-.69.88-.2.2-.52.49-.98.88l-.69.59c-.07,0-.41.25-1.03.74-.62.49-1.16.83-1.62,1.03-.46.2-.95.29-1.47.29-.79,0-1.69-.42-2.7-1.28-1.02-.85-2.11-1.28-3.29-1.28-1.44,0-2.98.52-4.62,1.57-1.64,1.05-2.69,1.9-3.14,2.55-.26.39-.39,1.02-.39,1.87v24.45c0,1.9.82,2.91,2.45,3.04.65.07,1.54.13,2.65.2,2.03.13,3.32.3,3.88.52.56.22.83.77.83,1.64,0,1.38.76,2.07,2.29,2.07.11,0-.15.01-.77.03-.63.02-1.77-.03-3.45-.15-1.68-.12-2.92-.21-3.73-.28-.81-.07-1.75-.11-2.83-.15-1.08-.03-2.11-.05-3.09-.05-1.05,0-2.1.02-3.14.05-1.05.03-1.98.08-2.8.15-.82.06-1.54.13-2.16.2-.62.06-1.11.11-1.47.15-.36.03-.57.05-.64.05-1.11,0-1.67-.59-1.67-1.76,0-.62.13-1.09.39-1.4.26-.31.52-.52.79-.62.26-.1.77-.2,1.52-.3.75-.1,1.36-.21,1.82-.34,1.24-.26,1.87-1.04,1.87-2.34v-26.55c0-.39-.03-.7-.1-.93-.07-.23-.25-.49-.54-.78-.29-.29-.59-.54-.88-.73-.29-.19-.87-.59-1.72-1.17-.85-.59-1.64-1.14-2.36-1.67-.2-.2-.33-.42-.39-.69,0-.26,1.34-1.01,4.03-2.26,2.42-1.18,4.62-2.26,6.58-3.24.06,0,.16-.03.29-.1.26-.13.46-.2.59-.2.79,0,1.18.69,1.18,2.06v4.03c0,.33.1.49.29.49Z" style="fill: #dcdcdc;"/>
      <path d="M289.87,37.34c0-2.01,1.57-4.04,4.72-6.09,3.15-2.05,6.66-3.07,10.55-3.07,1.23,0,2.49.13,3.79.4,1.3.26,2.77.73,4.42,1.39,1.65.66,3.05,1.8,4.18,3.42,1.13,1.62,1.83,3.58,2.09,5.89.13,1.58.19,2.81.19,3.66v19.49c0,1.16.23,2.09.69,2.8.46.71.92,1.14,1.38,1.3.46.16.92.24,1.37.24.92,0,1.64-.25,2.16-.76.52-.51.93-1.01,1.23-1.52.29-.51.64-.76,1.03-.76.59,0,.88.43.88,1.28,0,1.57-.72,3.29-2.16,5.16-1.44,1.87-3.31,2.8-5.6,2.8-.85,0-1.65-.14-2.41-.41-.76-.28-1.4-.64-1.91-1.08-.51-.45-.97-.88-1.38-1.29-.41-.41-.75-.79-1-1.14l-.29-.41c-.06,0-.1-.02-.1-.05s-.03-.05-.1-.05c-.13,0-.22.07-.29.21-.06.14-.29.41-.69.82-.4.41-.95.85-1.68,1.33-2.96,1.91-6.09,2.86-9.38,2.86s-6.08-1.08-8.17-3.24c-2.1-2.16-3.14-4.81-3.14-7.95v-.1c0-3.79,1.4-6.77,4.2-8.93.98-.79,2.25-1.49,3.81-2.11,1.56-.62,3.11-1.1,4.64-1.42,1.53-.33,2.98-.6,4.35-.83,1.37-.23,2.51-.38,3.42-.44l1.38-.1c.53-.13.79-.58.79-1.35v-3.57c0-3.41-.79-6.05-2.37-7.91-1.65-1.74-3.62-2.6-5.93-2.6-3.35,0-6.08,2.19-8.19,6.56-.62.77-1.37,1.16-2.26,1.16-1.1,0-2.08-.32-2.93-.96-.86-.64-1.29-1.51-1.29-2.61ZM303.95,68.01c1.51,0,2.95-.32,4.3-.97,1.35-.65,2.29-1.23,2.82-1.75.53-.52.95-.97,1.29-1.36.39-.52.59-1.26.59-2.23v-6.5c0-1.23-.05-2.02-.15-2.38-.1-.36-.38-.53-.84-.53-1.65,0-3.71.26-6.18.77-2.47.52-4.43,1.45-5.88,2.8-1.58,1.29-2.37,3.09-2.37,5.4,0,2.47.69,4.3,2.08,5.47.92.85,2.37,1.27,4.35,1.27Z" style="fill: #dcdcdc;"/>
      <path d="M331.7,43.89c0-4.25,1.51-7.92,4.54-11,3.02-3.08,6.76-4.62,11.22-4.62,2.83,0,5.57.59,8.23,1.77s4.16,1.77,4.49,1.77c2.09,0,3.86-1.05,5.3-3.14,1.06-1.57,2.07-2.36,3.04-2.36s1.88.44,2.74,1.33c.86.88,1.29,1.82,1.29,2.8,0,1.18-.54,2.19-1.61,3.04-1.07.85-2.31,1.56-3.73,2.11-1.42.56-2.16.87-2.22.93-.33.33-.49.59-.49.79,0,.13.1.46.29.98.2.53.39,1.26.59,2.21.2.95.29,1.98.29,3.09,0,4.65-1.62,8.63-4.87,11.93-3.25,3.31-7.21,4.96-11.87,4.96-1.32,0-2.57-.15-3.75-.44-1.18-.29-1.91-.44-2.17-.44-.92,0-1.91.57-2.96,1.72-1.05,1.15-1.58,2.27-1.58,3.39,0,1.77,1.43,2.95,4.29,3.53,2.86.59,6.51.95,10.95,1.08,4.44.13,7.64.49,9.6,1.08,3.11.85,5.46,2.31,7.05,4.38,1.59,2.07,2.38,4.31,2.38,6.74,0,1.5-.33,3-1,4.51-.67,1.5-1.75,2.97-3.26,4.41-1.5,1.44-3.72,2.61-6.66,3.53-2.94.91-6.41,1.37-10.42,1.37-7.11,0-12.09-1.33-14.94-3.98-2.85-2.65-4.27-5.55-4.27-8.69,0-.64.06-1.26.19-1.87.13-.61.28-1.15.47-1.63.19-.48.39-.93.61-1.34.22-.42.47-.8.75-1.15.28-.35.56-.66.85-.91.28-.26.55-.48.8-.67.25-.19.49-.37.71-.54.22-.17.41-.29.55-.36l.22-.1c.15-.13.22-.31.22-.51,0-.07-.35-.31-1.05-.71-.7-.41-1.4-1.08-2.1-2.01-.7-.94-1.05-2.07-1.05-3.41,0-3.21,1.87-6.32,5.6-9.33l.1-.1c.06-.06.1-.16.1-.29,0-.26-.22-.55-.65-.88-.44-.33-1.16-.96-2.17-1.91-1.01-.95-1.94-2.18-2.79-3.68-1.24-2.22-1.86-4.68-1.86-7.36ZM337.79,80.67c0,2.87,1.51,5.2,4.55,6.99,3.03,1.79,6.84,2.68,11.44,2.68s8.01-.72,9.96-2.15c1.95-1.44,2.92-3.08,2.92-4.93,0-2.68-1.35-4.63-4.06-5.84-1.39-.7-3-1.16-4.85-1.39-1.85-.23-4.44-.38-7.77-.48-3.33-.1-6.25-.27-8.75-.53h-.3c-.4,0-.91.35-1.53,1.05-1.08,1.21-1.62,2.75-1.62,4.6ZM347.75,31.62c-2.57,0-4.67,1.03-6.32,3.09-1.65,2.06-2.47,4.73-2.47,8,0,3.86.99,7.2,2.96,10.02,1.97,2.82,4.47,4.22,7.5,4.22,2.7,0,4.87-1.06,6.51-3.19,1.64-2.13,2.47-4.76,2.47-7.9,0-3.73-1-7.04-3.01-9.92-2.01-2.88-4.56-4.32-7.65-4.32Z" style="fill: #dcdcdc;"/>
      <path d="M375.79,51.35c0-6.77,2.1-12.29,6.3-16.56,4.2-4.27,9.19-6.41,14.96-6.41s11.06,2.15,15.06,6.46c4,4.3,6,9.81,6,16.51s-2.08,12.27-6.25,16.28c-4.17,4.01-9.23,6.01-15.21,6.01s-11.17-2.15-15.05-6.45c-3.88-4.3-5.82-9.58-5.82-15.84ZM386.9,63.64c2.56,3.33,5.91,5,10.05,5s7.55-1.67,10.25-5c2.69-3.33,4.04-7.3,4.04-11.9,0-5.18-1.49-9.53-4.48-13.06s-6.46-5.29-10.4-5.29c-3.29,0-6.32,1.42-9.12,4.27-2.79,2.85-4.19,7.25-4.19,13.21,0,5.18,1.28,9.44,3.84,12.77Z" style="fill: #dcdcdc;"/>
      <path d="M434.71,33.97c0,.26.1.39.29.39h.1c.06,0,.31-.2.74-.59.43-.39,1.04-.89,1.83-1.49.8-.6,1.73-1.2,2.79-1.8,1.06-.6,2.36-1.12,3.88-1.55,1.53-.43,3.12-.65,4.78-.65h.2c1.39,0,2.77.18,4.13.54,1.36.36,2.82,1.02,4.38,1.97,1.56.95,2.87,2.45,3.93,4.48,1.06,2.04,1.73,4.53,1.99,7.48.13,1.12.2,2.82.2,5.12v1.91c0,1.01-.02,2.82-.05,5.43-.03,2.61-.05,5.94-.05,9.99v.19c0,.33.03.64.09.93s.11.52.14.69c.03.16.14.33.32.49.18.16.32.28.41.34.09.07.31.15.64.25.34.1.58.15.74.15s.49.03,1.01.1c.52.07.91.13,1.15.2.92.13,1.38.75,1.38,1.87,0,1.31-.52,1.96-1.54,1.96-.19,0-.64-.05-1.35-.15-.71-.1-1.69-.2-2.95-.29-1.25-.1-2.59-.15-4.01-.15-.87,0-1.74.02-2.61.05-.87.03-1.62.08-2.26.15-.64.06-1.22.13-1.76.2-.54.06-.94.13-1.21.2h-.41c-.76,0-1.15-.65-1.15-1.96,0-.72.18-1.18.56-1.38.37-.2,1.36-.42,2.96-.69.56-.13,1.02-.23,1.39-.29.62-.13,1.03-.34,1.25-.64.21-.29.32-.86.32-1.71v-15.57c0-4.89-.46-8.52-1.37-10.87-.98-2.22-2.46-3.77-4.42-4.65-1.96-.88-3.83-1.32-5.6-1.32-2.55,0-4.85.78-6.87,2.35-2.03,1.57-3.18,2.94-3.44,4.11-.13.52-.2.98-.2,1.37v23.99c0,1.7.75,2.64,2.26,2.84,2.95.46,4.55.82,4.81,1.08.39.33.59.88.59,1.67,0,1.18-.43,1.77-1.28,1.77-.07,0-.28-.02-.64-.05-.36-.03-.83-.08-1.42-.15-.59-.07-1.24-.15-1.96-.25-.72-.1-1.56-.16-2.5-.2-.95-.03-1.88-.05-2.8-.05s-1.83.02-2.75.05c-.92.03-1.72.08-2.41.15-.69.06-1.29.13-1.82.2-.52.06-.95.11-1.28.15-.33.03-.52.05-.59.05-1.11,0-1.67-.59-1.67-1.77,0-.92.21-1.49.64-1.72.43-.23,1.52-.47,3.29-.74,1.18-.2,1.92-.55,2.21-1.08.29-.52.44-1.31.44-2.35v-23.89c0-1.17-.16-1.97-.49-2.4-.33-.42-1.67-1.52-4.03-3.28-.39-.4-.59-.73-.59-.99v-.1c0-.33.23-.65.69-.95.46-.3,1.87-1.08,4.22-2.34,1.83-.99,3.37-1.82,4.62-2.49.39-.26.72-.4.98-.4.79,0,1.18.5,1.18,1.5v3.99c0,.07-.03.2-.1.4v.2Z" style="fill: #dcdcdc;"/>
    </g>
  </g>
</svg>