<?xml version="1.0" encoding="UTF-8"?>
<svg id="Layer_2" xmlns="http://www.w3.org/2000/svg" width="595.24" height="95.82" viewBox="0 0 595.24 95.82">
  <g id="Layer_1-2" data-name="Layer_1">
    <path d="M97.15,44.7c-3.92,1.05-7.83,2.11-11.85,3.19-.81-7.37,1.96-13.79,4.1-20.36-6.54,6.96-12.92,13.97-19.23,21.05-.46.51-.51,1.48-.55,2.25-.16,2.74-1.32,4.84-3.98,5.67-1.93.61-2.67,1.87-3.02,3.66,5.49-.23,9.81-3.16,10.68-7.94.96-5.23,5.43-7.45,8.27-11.1-.06,1.76-.46,3.35-.71,4.96-1.3,8.46-6.4,13.69-14.39,15.82-3.96,1.06-6.92,2.52-7.99,6.67-.01.05-.23.05-.49.1.87-4.58,1.72-9.11,2.66-14.1-2.22,1.11-3.88,1.94-5.86,2.93.32-2.96.59-5.54.87-8.13.11-.01.21-.03.32-.04.39,1.32.78,2.64,1.23,4.13,19.26-7.11,26.07-28.84,22.1-48.4-2.59,9.6-9.01,15.42-17.15,20.02-.5-1.49-.87-2.63-1.36-4.11-1.64,2.05-3.05,3.81-4.76,5.93-2.47-8.88-4.81-17.3-7.16-25.72-.18,0-.37,0-.55,0-2.34,8.43-4.69,16.86-7.16,25.75-1.72-2.15-3.15-3.93-4.78-5.97-.53,1.62-.91,2.78-1.33,4.07-8.2-4.53-14.54-10.46-17.27-19.64-4.17,25.44,6.94,42.54,22.18,48.02.43-1.43.87-2.86,1.3-4.28.11.02.21.05.32.07.26,2.65.51,5.3.81,8.33-2.07-1.06-3.72-1.9-5.85-2.99.94,5.03,1.8,9.57,2.65,14.11-.64-.34-.92-.76-1.06-1.22-.85-2.94-2.76-4.2-5.78-5.05-12.5-3.49-15.27-9.22-16.89-21.77,2.03,2.22,3.68,4.12,5.44,5.92,1.52,1.56,2.5,3.25,2.95,5.48.98,4.91,5.26,7.99,10.73,8.13-.37-1.78-1.08-3.08-3.05-3.64-2.03-.58-3.75-2.14-3.65-4.22.15-3.02-1.65-4.65-3.34-6.52-1.94-2.14-3.85-4.31-5.79-6.45-3.62-3.99-7.25-7.97-10.88-11.95,2.12,6.71,4.84,13.18,4.02,20.5-4.08-1.1-7.99-2.15-11.91-3.2,6.37,6.77,10.56,13.84,7.17,23.53.9-.19,1.52-.32,2.14-.45,7.82-1.68,14.3.87,18.46,7.7,1.69,2.78,2.89,5.91,3.92,9.02.98,2.97,2.5,5.36,5.13,7.02,4.94,3.11,10.38,3.6,15.98,2.75,6.74-1.03,11.66-4.23,13.22-11.43.45-2.05,1.48-4.02,2.49-5.9,2.67-4.96,6.56-8.57,12.29-9.4,2.94-.42,5.99-.07,8.99-.07-3.21-8.92,1.11-16,7.36-22.75ZM40.18,84.05c-.31.64-.62,1.26-1.02,2.08-.32-.27-.58-.42-.75-.64-1.95-2.53-2.08-4.22-.54-6.73,3.44.86,4.24,3.54,4.53,7.12-.88-.72-1.48-1.22-2.22-1.83ZM58.04,86.21c-.36-.84-.62-1.41-.93-2.13-.73.56-1.39,1.05-2.18,1.66.11-3.21.79-5.84,4.11-6.89,2.12,1.69,1.9,4.19-1,7.37Z"/>
    <g>
      <path d="M125.28,41.17c0-3.21,1.33-6.04,4-8.49,2.66-2.44,6.17-3.67,10.51-3.67.92,0,1.76.05,2.52.15.76.1,1.35.18,1.78.25.43.07.67.1.74.1.26,0,.66-.16,1.18-.49.53-.33.99-.49,1.38-.49.8,0,1.33.64,1.59,1.91.2,1,.46,2.41.8,4.22.33,1.81.61,3.33.85,4.57.23,1.24.35,1.92.35,2.06,0,.91-.8,1.37-2.4,1.37-.66,0-1.13-.24-1.43-.72-.3-.48-.58-1.16-.84-2.05-.26-.89-.56-1.56-.89-2-.72-.95-1.89-1.83-3.5-2.62-1.61-.8-3.21-1.19-4.79-1.19-1.78,0-3.29.48-4.54,1.45-1.25.96-1.88,2.22-1.88,3.76,0,3.28,2.66,5.65,7.99,7.13.7.21,1.7.46,3.02.76,1.32.3,2.33.54,3.03.73.7.19,1.56.48,2.59.88,1.03.4,1.94.89,2.74,1.48.8.59,1.56,1.31,2.29,2.17,2.06,2.37,3.09,5.03,3.09,7.99,0,3.56-1.41,6.71-4.22,9.48-2.81,2.76-6.57,4.15-11.27,4.15-2.57,0-5.18-.43-7.84-1.28-2.66-.85-4.69-2.1-6.07-3.75-.79-.85-1.18-2.01-1.18-3.45,0-1.05-.02-2.24-.05-3.55-.03-1.31-.05-2.14-.05-2.47,0-1.32.11-2.17.35-2.57.23-.39.71-.59,1.43-.59s1.18.29,1.38.88c.2.59.33,1.45.39,2.59.06,1.14.26,2.07.59,2.79.59,1.31,1.99,2.61,4.19,3.92,2.2,1.3,4.62,1.96,7.25,1.96,2.3,0,4.24-.62,5.82-1.86,1.58-1.24,2.37-2.84,2.37-4.8,0-1.24-.28-2.34-.84-3.28-.56-.95-1.43-1.73-2.62-2.35-1.18-.62-2.14-1.08-2.86-1.37-.72-.29-1.88-.64-3.45-1.03l-2.32-.48c-7.47-2.13-11.2-6.18-11.2-12.13Z" style="fill: #231f20;"/>
      <path d="M192.58,68.78c-.07,0-.34.18-.83.54-.49.36-1.15.79-1.96,1.28-.82.49-1.75.99-2.8,1.48-1.05.49-2.33.92-3.83,1.28-1.51.36-3.05.54-4.62.54-4.16,0-7.63-1.28-10.4-3.85-2.77-2.57-4.46-6.15-5.05-10.76-.2-1.97-.3-4.05-.3-6.22,0-1.25.02-4.16.05-8.73.03-4.57.05-7.06.05-7.45,0-1.25-.91-2.2-2.72-2.86-.32-.13-.82-.3-1.5-.49-.68-.2-1.12-.39-1.31-.59-.19-.2-.29-.56-.29-1.09v-.3c0-.85.36-1.31,1.08-1.38,6.7-.39,10.22-.59,10.55-.59.67,0,1,.4,1,1.18v20.72c0,4.41.62,7.89,1.87,10.46.92,1.78,2.31,3.34,4.18,4.69,1.87,1.35,4.01,2.02,6.44,2.02,3.27,0,6.12-1.22,8.55-3.65.13-.2.31-.41.54-.64.23-.23.38-.39.44-.49.06-.1.16-.21.29-.35.13-.13.21-.25.25-.35.03-.1.08-.21.15-.35.06-.13.1-.25.1-.35v-25.31c0-1.45-.67-2.37-2.02-2.76-.34-.13-1.96-.43-4.85-.89-1.01-.2-1.52-.76-1.52-1.68,0-.99.46-1.54,1.38-1.68,2.17-.06,4.13-.13,5.87-.2,1.74-.06,2.96-.11,3.65-.15.69-.03,1.28-.05,1.78-.05h1.13c.99,0,1.48.66,1.48,1.97v31.68c0,.2.02.35.05.44.03.1.1.2.2.3.1.1.22.18.36.25.14.07.34.17.61.3.27.13.58.26.92.39.34.13.78.33,1.33.59.54.26,1.12.53,1.73.79.61.26.92.66.92,1.18,0,.72-.15,1.22-.45,1.48-.3.26-.75.44-1.34.54s-1.69.43-3.28.99c-1.59.56-3.31,1.37-5.17,2.42-.38.26-.74.39-1.05.39-.9,0-1.34-.66-1.34-1.97v-2.37c0-.26-.1-.39-.29-.39Z" style="fill: #231f20;"/>
      <path d="M231.56,29.41c1.97,0,3.82.11,5.53.34,1.71.23,3.03.47,3.95.72l1.38.39c.52,0,.79-.29.79-.89V13.02c0-.2-.02-.38-.05-.54-.03-.16-.06-.31-.1-.44-.03-.13-.1-.26-.19-.39-.1-.13-.18-.23-.24-.3-.06-.06-.21-.16-.44-.3-.23-.13-.42-.25-.58-.34-.16-.1-.42-.21-.78-.35-.36-.13-.68-.26-.97-.4-.29-.13-.7-.3-1.22-.49-.52-.2-1.01-.4-1.46-.59-1.24-.33-1.85-.85-1.85-1.58,0-.4.29-.79.89-1.18,8.41-4.08,12.75-6.12,13.02-6.12.8,0,1.2.46,1.2,1.38,0,.66-.03,2.39-.1,5.18-.07,2.8-.12,6.63-.15,11.51-.03,4.88-.05,10.2-.05,15.97,0,17.97.1,27.84.3,29.61,0,.2.02.34.05.44.03.1.08.2.15.3.06.1.15.18.25.25.1.07.23.12.39.15.16.03.31.06.44.1.13.03.35.05.64.05h.79c.23,0,.54.02.94.05.39.03.76.05,1.09.05,1.31,0,1.97.49,1.97,1.48,0,.47-.18.83-.54,1.09-.36.27-1.12.65-2.27,1.15-1.15.5-2.22,1.04-3.21,1.63-1.33.72-2.52,1.46-3.59,2.21-1.07.75-1.84,1.31-2.3,1.67-.47.36-.83.54-1.1.54-.54,0-.8-.3-.8-.89v-3.39c0-.21-.1-.31-.3-.31l-.59.41c-.33.27-.82.62-1.47,1.02-.66.41-1.43.82-2.31,1.23-.88.41-2,.75-3.34,1.02-1.34.27-2.74.41-4.18.41-6.53,0-11.85-2.23-15.97-6.71-4.12-4.47-6.18-9.98-6.18-16.54,0-5.81,1.89-10.88,5.67-15.19s9.39-6.47,16.83-6.47h.1ZM231.41,33.35c-4.98,0-8.82,1.51-11.51,4.53-2.69,3.02-4.03,7.12-4.03,12.3,0,5.71,1.9,10.24,5.7,13.58,3.8,3.35,7.74,5.02,11.8,5.02,2.03,0,4.02-.41,5.95-1.23,1.93-.82,3.1-1.85,3.49-3.1.26-1.05.39-1.8.39-2.26v-22.63c0-.85-.36-1.64-1.08-2.36-2.75-2.56-6.33-3.84-10.72-3.84Z" style="fill: #231f20;"/>
      <path d="M259.29,51.61c0-6.8,2.11-12.35,6.33-16.65,4.22-4.29,9.23-6.44,15.03-6.44s11.11,2.17,15.13,6.49c4.02,4.33,6.03,9.86,6.03,16.6s-2.09,12.33-6.28,16.36c-4.19,4.03-9.28,6.04-15.28,6.04s-11.22-2.16-15.12-6.49c-3.9-4.32-5.85-9.63-5.85-15.92ZM270.45,63.95c2.58,3.35,5.94,5.02,10.1,5.02s7.59-1.67,10.3-5.02c2.71-3.35,4.06-7.34,4.06-11.96,0-5.21-1.5-9.58-4.51-13.13-3-3.55-6.49-5.32-10.45-5.32-3.3,0-6.35,1.43-9.16,4.29-2.81,2.86-4.21,7.29-4.21,13.27,0,5.21,1.29,9.48,3.86,12.83Z" style="fill: #231f20;"/>
      <path d="M349.83,29.41c1.97,0,3.82.11,5.53.34,1.71.23,3.03.47,3.95.72l1.38.39c.52,0,.79-.29.79-.89V13.02c0-.2-.02-.38-.05-.54-.03-.16-.06-.31-.1-.44-.03-.13-.1-.26-.19-.39-.1-.13-.18-.23-.24-.3-.06-.06-.21-.16-.44-.3-.23-.13-.42-.25-.58-.34-.16-.1-.42-.21-.78-.35-.36-.13-.68-.26-.97-.4-.29-.13-.7-.3-1.22-.49-.52-.2-1.01-.4-1.46-.59-1.24-.33-1.85-.85-1.85-1.58,0-.4.29-.79.89-1.18,8.41-4.08,12.75-6.12,13.02-6.12.8,0,1.2.46,1.2,1.38,0,.66-.03,2.39-.1,5.18-.07,2.8-.12,6.63-.15,11.51-.03,4.88-.05,10.2-.05,15.97,0,17.97.1,27.84.3,29.61,0,.2.02.34.05.44.03.1.08.2.15.3.06.1.15.18.25.25.1.07.23.12.39.15.16.03.31.06.44.1.13.03.35.05.64.05h.79c.23,0,.54.02.94.05.39.03.76.05,1.09.05,1.31,0,1.97.49,1.97,1.48,0,.47-.18.83-.54,1.09-.36.27-1.12.65-2.27,1.15-1.15.5-2.22,1.04-3.21,1.63-1.33.72-2.52,1.46-3.59,2.21-1.07.75-1.84,1.31-2.3,1.67-.47.36-.83.54-1.1.54-.54,0-.8-.3-.8-.89v-3.39c0-.21-.1-.31-.3-.31l-.59.41c-.33.27-.82.62-1.47,1.02-.66.41-1.43.82-2.31,1.23-.88.41-2,.75-3.34,1.02-1.34.27-2.74.41-4.18.41-6.53,0-11.85-2.23-15.97-6.71-4.12-4.47-6.18-9.98-6.18-16.54,0-5.81,1.89-10.88,5.67-15.19s9.39-6.47,16.83-6.47h.1ZM349.67,33.35c-4.98,0-8.82,1.51-11.51,4.53-2.69,3.02-4.03,7.12-4.03,12.3,0,5.71,1.9,10.24,5.7,13.58,3.8,3.35,7.74,5.02,11.8,5.02,2.03,0,4.02-.41,5.95-1.23,1.93-.82,3.1-1.85,3.49-3.1.26-1.05.39-1.8.39-2.26v-22.63c0-.85-.36-1.64-1.08-2.36-2.75-2.56-6.33-3.84-10.72-3.84Z" style="fill: #231f20;"/>
      <path d="M389.99,34.04c.06,0,.79-.48,2.17-1.43,1.38-.95,2.93-1.99,4.64-3.11,1.71-1.12,2.96-1.81,3.75-2.07.79-.26,1.78-.39,2.96-.39,1.84,0,3.62.41,5.33,1.23,1.71.82,2.57,1.89,2.57,3.21v.1c0,.4-.13.79-.39,1.18-.26.39-.49.69-.69.89-.2.2-.53.49-.99.89l-.69.59c-.07,0-.41.25-1.04.74-.63.49-1.17.84-1.63,1.04-.46.2-.95.3-1.48.3-.79,0-1.69-.43-2.71-1.28-1.02-.85-2.12-1.28-3.31-1.28-1.45,0-2.99.53-4.64,1.58-1.65,1.05-2.7,1.91-3.16,2.57-.26.4-.39,1.02-.39,1.88v24.57c0,1.91.82,2.93,2.47,3.06.66.07,1.54.13,2.66.2,2.04.13,3.34.3,3.9.52.56.22.84.77.84,1.65,0,1.38.77,2.08,2.3,2.08.11,0-.15.01-.78.03-.63.02-1.78-.03-3.47-.15-1.68-.12-2.93-.22-3.75-.28-.81-.07-1.76-.12-2.85-.15-1.09-.03-2.12-.05-3.11-.05-1.05,0-2.11.02-3.16.05-1.05.03-1.99.08-2.81.15-.82.06-1.55.13-2.17.2-.63.06-1.12.11-1.48.15-.36.03-.58.05-.64.05-1.12,0-1.68-.59-1.68-1.77,0-.62.13-1.09.4-1.4.26-.31.53-.52.79-.62.26-.1.77-.2,1.53-.3.76-.1,1.36-.21,1.83-.34,1.25-.26,1.87-1.05,1.87-2.35v-26.68c0-.39-.03-.7-.1-.93-.07-.23-.25-.49-.54-.78-.3-.29-.59-.54-.89-.74-.3-.2-.87-.59-1.73-1.18-.86-.59-1.65-1.15-2.37-1.67-.2-.2-.33-.43-.39-.69,0-.26,1.35-1.02,4.05-2.27,2.43-1.18,4.64-2.27,6.61-3.26.06,0,.16-.03.3-.1.26-.13.46-.2.59-.2.79,0,1.18.69,1.18,2.07v4.05c0,.33.1.49.3.49Z" style="fill: #231f20;"/>
      <path d="M414.46,37.52c0-2.02,1.58-4.06,4.74-6.12,3.16-2.06,6.69-3.09,10.6-3.09,1.24,0,2.51.13,3.81.4,1.3.27,2.78.73,4.45,1.39,1.66.66,3.06,1.81,4.2,3.43,1.14,1.62,1.84,3.6,2.1,5.92.13,1.59.19,2.82.19,3.68v19.59c0,1.16.23,2.1.69,2.81.46.71.92,1.15,1.38,1.31.46.16.92.24,1.38.24.92,0,1.64-.25,2.17-.76.53-.51.94-1.02,1.23-1.53.3-.51.64-.76,1.04-.76.59,0,.89.43.89,1.28,0,1.58-.72,3.31-2.17,5.18-1.45,1.88-3.32,2.81-5.62,2.81-.85,0-1.66-.14-2.43-.41-.77-.28-1.41-.64-1.92-1.09-.51-.45-.97-.88-1.39-1.3-.42-.41-.75-.8-1.01-1.14l-.29-.41c-.06,0-.1-.02-.1-.05s-.03-.05-.1-.05c-.13,0-.22.07-.29.21-.06.14-.29.41-.69.82-.4.41-.96.86-1.69,1.34-2.98,1.92-6.12,2.88-9.43,2.88s-6.11-1.09-8.21-3.25c-2.11-2.17-3.16-4.83-3.16-7.99v-.1c0-3.81,1.41-6.8,4.22-8.97.98-.79,2.26-1.5,3.83-2.12,1.57-.62,3.12-1.1,4.66-1.43,1.54-.33,2.99-.61,4.37-.84,1.37-.23,2.52-.38,3.44-.44l1.39-.1c.53-.13.79-.58.79-1.36v-3.59c0-3.43-.8-6.08-2.38-7.95-1.66-1.75-3.64-2.62-5.96-2.62-3.37,0-6.11,2.2-8.24,6.59-.62.78-1.38,1.16-2.27,1.16-1.1,0-2.09-.32-2.95-.97-.86-.65-1.29-1.52-1.29-2.62ZM428.61,68.34c1.52,0,2.96-.32,4.32-.97,1.36-.65,2.3-1.23,2.83-1.75.53-.52.96-.97,1.29-1.36.4-.52.6-1.27.6-2.24v-6.53c0-1.23-.05-2.03-.15-2.39-.1-.36-.38-.54-.84-.54-1.66,0-3.73.26-6.21.78-2.48.52-4.45,1.46-5.91,2.81-1.59,1.29-2.38,3.1-2.38,5.43,0,2.49.7,4.32,2.09,5.5.92.85,2.38,1.27,4.37,1.27Z" style="fill: #231f20;"/>
      <path d="M456.5,44.11c0-4.28,1.52-7.96,4.56-11.05,3.04-3.09,6.8-4.64,11.27-4.64,2.84,0,5.6.59,8.28,1.78s4.18,1.78,4.51,1.78c2.1,0,3.88-1.05,5.33-3.16,1.07-1.58,2.08-2.37,3.05-2.37s1.89.44,2.75,1.33c.87.89,1.3,1.83,1.3,2.81,0,1.18-.54,2.21-1.61,3.06-1.08.86-2.33,1.56-3.75,2.12-1.42.56-2.17.87-2.23.94-.33.33-.49.59-.49.79,0,.13.1.46.3.99.2.53.39,1.27.59,2.22.2.95.3,1.99.3,3.11,0,4.67-1.63,8.67-4.9,11.99-3.27,3.32-7.24,4.98-11.92,4.98-1.32,0-2.58-.15-3.77-.44-1.19-.3-1.92-.44-2.18-.44-.92,0-1.92.58-2.97,1.73-1.06,1.15-1.58,2.29-1.58,3.4,0,1.78,1.44,2.96,4.31,3.55,2.87.59,6.54.95,11,1.09,4.46.13,7.68.49,9.65,1.09,3.12.86,5.48,2.32,7.08,4.4,1.6,2.08,2.4,4.34,2.4,6.78,0,1.51-.34,3.02-1.01,4.53-.67,1.51-1.76,2.99-3.27,4.43-1.51,1.44-3.74,2.63-6.7,3.54-2.95.92-6.44,1.38-10.47,1.38-7.14,0-12.15-1.33-15.01-4-2.86-2.66-4.3-5.58-4.3-8.73,0-.64.06-1.27.19-1.88.13-.61.28-1.16.47-1.64.19-.48.39-.93.61-1.35.22-.42.47-.81.76-1.16.28-.35.57-.66.85-.92.28-.26.55-.48.8-.67.25-.19.49-.38.71-.55.22-.17.41-.29.56-.36l.22-.1c.15-.14.22-.31.22-.51,0-.07-.35-.31-1.05-.72-.7-.41-1.41-1.08-2.11-2.02-.7-.94-1.05-2.08-1.05-3.43,0-3.22,1.88-6.35,5.62-9.37l.1-.1c.06-.06.1-.16.1-.3,0-.26-.22-.56-.66-.89-.44-.33-1.17-.97-2.18-1.92-1.01-.95-1.95-2.19-2.8-3.7-1.24-2.24-1.87-4.7-1.87-7.4ZM462.61,81.07c0,2.89,1.52,5.23,4.57,7.02,3.04,1.79,6.88,2.69,11.49,2.69s8.05-.72,10.01-2.16c1.96-1.44,2.94-3.1,2.94-4.96,0-2.69-1.36-4.65-4.08-5.87-1.39-.71-3.02-1.17-4.87-1.39-1.86-.23-4.46-.39-7.81-.48-3.35-.1-6.28-.27-8.79-.53h-.3c-.4,0-.91.35-1.54,1.06-1.09,1.22-1.63,2.76-1.63,4.62ZM472.63,31.77c-2.58,0-4.69,1.04-6.35,3.11s-2.48,4.75-2.48,8.04c0,3.88.99,7.24,2.97,10.07,1.98,2.83,4.5,4.24,7.54,4.24,2.71,0,4.89-1.07,6.55-3.21,1.65-2.14,2.48-4.79,2.48-7.94,0-3.75-1.01-7.07-3.02-9.97-2.02-2.89-4.58-4.34-7.69-4.34Z" style="fill: #231f20;"/>
      <path d="M500.8,51.61c0-6.8,2.11-12.35,6.33-16.65,4.22-4.29,9.23-6.44,15.03-6.44s11.11,2.17,15.13,6.49c4.02,4.33,6.03,9.86,6.03,16.6s-2.09,12.33-6.28,16.36c-4.19,4.03-9.28,6.04-15.28,6.04s-11.22-2.16-15.12-6.49c-3.9-4.32-5.85-9.63-5.85-15.92ZM511.97,63.95c2.58,3.35,5.94,5.02,10.1,5.02s7.59-1.67,10.3-5.02c2.71-3.35,4.06-7.34,4.06-11.96,0-5.21-1.5-9.58-4.51-13.13-3-3.55-6.49-5.32-10.45-5.32-3.3,0-6.35,1.43-9.16,4.29-2.81,2.86-4.21,7.29-4.21,13.27,0,5.21,1.29,9.48,3.86,12.83Z" style="fill: #231f20;"/>
      <path d="M560.01,34.14c0,.26.1.39.3.39h.1c.06,0,.31-.2.74-.59.43-.4,1.04-.89,1.84-1.5.8-.6,1.73-1.21,2.8-1.81,1.07-.6,2.37-1.12,3.9-1.56,1.54-.44,3.14-.66,4.81-.66h.2c1.4,0,2.79.18,4.16.54,1.37.36,2.84,1.02,4.41,1.98,1.57.96,2.89,2.46,3.95,4.5,1.07,2.05,1.73,4.55,2,7.52.13,1.12.2,2.84.2,5.15v1.92c0,1.02-.02,2.84-.05,5.46-.03,2.62-.05,5.97-.05,10.04v.2c0,.33.03.64.09.94.06.3.11.53.14.69s.14.33.32.49.32.28.42.34c.09.07.31.15.65.25.34.1.59.15.74.15s.49.03,1.02.1c.52.07.91.13,1.16.2.93.13,1.39.76,1.39,1.88,0,1.32-.52,1.97-1.55,1.97-.19,0-.65-.05-1.36-.15-.71-.1-1.7-.2-2.96-.3-1.26-.1-2.6-.15-4.03-.15-.88,0-1.75.02-2.62.05-.88.03-1.63.08-2.27.15-.64.06-1.23.13-1.77.2-.54.06-.95.13-1.22.2h-.41c-.77,0-1.15-.66-1.15-1.97,0-.72.19-1.18.56-1.38.37-.2,1.36-.43,2.98-.69.56-.13,1.02-.23,1.4-.29.62-.13,1.04-.34,1.26-.64.22-.29.33-.87.33-1.72v-15.65c0-4.92-.46-8.56-1.38-10.92-.99-2.23-2.47-3.79-4.44-4.67-1.97-.88-3.85-1.33-5.62-1.33-2.57,0-4.87.79-6.91,2.36-2.04,1.57-3.19,2.95-3.45,4.13-.13.53-.2.99-.2,1.38v24.11c0,1.71.76,2.66,2.27,2.85,2.96.46,4.57.82,4.84,1.09.4.33.59.89.59,1.68,0,1.18-.43,1.78-1.28,1.78-.07,0-.28-.02-.64-.05-.36-.03-.84-.08-1.43-.15-.59-.07-1.25-.15-1.97-.25-.73-.1-1.56-.17-2.52-.2-.95-.03-1.89-.05-2.81-.05s-1.84.02-2.76.05c-.92.03-1.73.08-2.42.15-.69.06-1.3.13-1.83.2-.53.06-.95.11-1.28.15-.33.03-.53.05-.59.05-1.12,0-1.68-.59-1.68-1.78,0-.92.21-1.5.64-1.73.43-.23,1.53-.48,3.31-.74,1.18-.2,1.92-.56,2.22-1.08.3-.52.44-1.31.44-2.36v-24.01c0-1.18-.17-1.98-.49-2.41-.33-.43-1.68-1.52-4.05-3.3-.39-.4-.59-.73-.59-1v-.1c0-.33.23-.65.69-.95.46-.3,1.88-1.08,4.24-2.35,1.84-1,3.39-1.83,4.64-2.5.39-.27.72-.4.99-.4.79,0,1.18.5,1.18,1.5v4.01c0,.07-.03.2-.1.4v.2Z" style="fill: #231f20;"/>
    </g>
  </g>
</svg>